<svg xmlns="http://www.w3.org/2000/svg" xmlns:xlink="http://www.w3.org/1999/xlink" viewBox="0 0 2500 1291.49"><defs><style>.cls-1{fill:none;}.cls-2{fill:#288089;}.cls-3{fill:#32aeb7;}.cls-4{isolation:isolate;}.cls-5{clip-path:url(#clip-path);}.cls-6{fill:#fff;}</style><clipPath id="clip-path"><polygon class="cls-1" points="1114.59 628.49 1122.94 142.42 1385.89 51.88 1377.54 537.95 1114.59 628.49"/></clipPath></defs><g id="Layer_2" data-name="Layer 2"><g id="Layer_1-2" data-name="Layer 1"><path class="cls-2" d="M2402.05,800.74c-133.42,69.59-824.55,353.88-971.69,430.66s-228.88,76-345.12,20.39S233.53,899,101,835.61C34.82,804,0,777.26,0,752V499.16s957.52-208.54,1112.1-264,208.2-57.49,339.75-9.28S2370,416,2500,463.67l-.06,249.27c0,25-30,52.4-97.89,87.8"/><path class="cls-3" d="M2402,559.76C2268.59,629.25,1577.48,913.27,1430.34,990s-228.87,75.91-345.1,20.37S233.54,657.85,101.06,594.58-34.19,487.73,96,436.78,957.52,99,1112.11,43.59s208.19-57.43,339.73-9.26,818.55,321.45,948.54,369.06,135,86.87,1.62,156.37"/><g class="cls-4"><g class="cls-5"><path class="cls-6" d="M1319.9,205c-9.89,3.41-19.09,1.58-25.92-5.12s-10.48-17.51-10.26-30.4a75.43,75.43,0,0,1,11.43-37.85c7.14-11.52,16.52-19.74,26.41-23.15s19.09-1.58,25.92,5.13l4.93,4.84-.5.8c3.95,6.48,6,15,5.82,24.76a75.65,75.65,0,0,1-11.42,37.86c-7.15,11.5-16.53,19.73-26.41,23.13m2.2-112.69c-13.18,4.59-25.68,15.55-35.21,30.88a100.76,100.76,0,0,0-15.28,50.52c-.29,17.19,4.58,31.59,13.72,40.54a30.9,30.9,0,0,0,23,9l5.43-.16-3.36,195.36c-.5,29-9.65,59.3-25.78,85.25s-37.28,44.46-59.58,52.14-43.06,3.59-58.48-11.49S1143,505,1143.46,476l1.08-63.18,30.68,34.38a3.86,3.86,0,0,0,4.12,1.15l.32-.1a8.48,8.48,0,0,0,4-3.4,12.3,12.3,0,0,0,2.07-6.1,7.09,7.09,0,0,0-1.44-5.12L1144,388.4l-.2-.28a3.9,3.9,0,0,0-4.37-1.64,3.24,3.24,0,0,0-.41.13,8.22,8.22,0,0,0-4,3.45,13.85,13.85,0,0,0-2.2,7.09l-1.42,83c-.58,33.33,8.83,61.24,26.5,78.59s41.43,22.06,67,13.27,49.77-30,68.23-59.83c14.09-22.73,28.68-55.61,30-127.13L1325.91,220l5.35-3.66c8.88-6.08,16.63-14.58,23.7-26a100.82,100.82,0,0,0,15.24-50.52c.29-17.19-4.56-31.59-13.68-40.55s-21.3-11.37-34.42-6.9"/><path class="cls-6" d="M1320.22,186.42c-6.08,2.09-11.73,1-15.93-3.15s-6.43-10.75-6.3-18.67a46.51,46.51,0,0,1,7-23.26c4.39-7.08,10.15-12.13,16.23-14.22,5.89-2,11.4-1,15.56,2.8l.36.36c4.2,4.12,6.43,10.75,6.3,18.67a46.37,46.37,0,0,1-7,23.25c-4.39,7.08-10.15,12.13-16.22,14.22m1.34-77.91c-9.89,3.41-19.27,11.63-26.41,23.15a75.43,75.43,0,0,0-11.43,37.85c-.22,12.89,3.42,23.68,10.26,30.4s16,8.53,25.92,5.12,19.26-11.63,26.41-23.13A75.65,75.65,0,0,0,1357.73,144c.16-9.73-1.87-18.28-5.82-24.76l.5-.8-4.93-4.84c-6.83-6.71-16-8.53-25.92-5.13M1225.08,555.9c22.3-7.68,43.46-26.2,59.58-52.14s25.28-56.23,25.78-85.25l3.36-195.36-5.43.16a30.9,30.9,0,0,1-23-9c-9.14-8.95-14-23.35-13.72-40.54a100.76,100.76,0,0,1,15.28-50.52c9.53-15.33,22-26.29,35.21-30.88s25.34-2,34.42,6.9,14,23.36,13.68,40.55A100.82,100.82,0,0,1,1355,190.31c-7.07,11.4-14.82,19.9-23.7,26l-5.35,3.66-2.84,165.13c-1.35,71.52-15.94,104.4-30,127.13-18.46,29.79-42.69,51-68.23,59.83s-49.33,4.08-67-13.27-27.08-45.26-26.5-78.59l1.42-83a13.85,13.85,0,0,1,2.2-7.09,8.22,8.22,0,0,1,4-3.45,3.24,3.24,0,0,1,.41-.13,3.9,3.9,0,0,1,4.37,1.64l.2.28,40.36,45.23a7.09,7.09,0,0,1,1.44,5.12,12.3,12.3,0,0,1-2.07,6.1,8.48,8.48,0,0,1-4,3.4l-.32.1a3.86,3.86,0,0,1-4.12-1.15l-30.68-34.38L1143.46,476c-.5,29,7.72,53.33,23.14,68.41s36.18,19.17,58.48,11.49m97.48-482.21-.28.09c-16.93,5.92-33,20-45.24,39.74s-19.31,43-19.7,65.13,5.9,40.74,17.68,52.27a39.72,39.72,0,0,0,24.27,11.45l-3.12,181.05c-.41,24-8,49.13-21.36,70.64s-30.91,36.85-49.41,43.22-35.71,3-48.5-9.51-19.58-32.63-19.17-56.68l.26-15,6.44,7.22c3.55,4,8.47,5.35,13.88,3.84.34-.09.69-.2,1-.32,5-1.73,9.87-5.78,13.7-11.51a41.65,41.65,0,0,0,7-20.58c.39-7.15-1.34-13.28-4.89-17.27l-39.95-44.77a13.08,13.08,0,0,0-14.44-5.16c-.49.12-1,.27-1.46.43-5.09,1.75-10,5.89-13.82,11.8a43.13,43.13,0,0,0-7,22.26l-1.42,83c-.66,38.3,10.15,70.37,30.44,90.3s47.64,25.36,77,15.26,57.21-34.53,78.42-68.77c23-37,33.26-79.4,34.43-141.7l2.6-151.13c9.19-7.37,17.37-16.94,24.89-29.06,12.28-19.81,19.26-42.93,19.64-65.11s-5.88-40.73-17.63-52.27-27.39-14.65-44.28-8.92"/></g></g></g></g></svg>