<svg id="Layer_1" data-name="Layer 1" xmlns="http://www.w3.org/2000/svg" viewBox="0 0 1000 1000"><defs><style>.cls-1{fill:#3fbbd8;stroke-width:6px;}.cls-1,.cls-2,.cls-3{stroke:#3fbbd8;stroke-miterlimit:10;}.cls-2,.cls-3{fill:none;}.cls-2{stroke-width:15px;}.cls-3{stroke-width:16px;}</style></defs><path class="cls-1" d="M442.84,745.75l.48-4.79,49.79-2.39V417.76l-46.92-2.4.48-4.78H578.82c58.9,0,93.85,36.86,93.85,86.66,0,35.91-14.36,68-54.59,79,38.31,10.53,61.77,41.65,61.77,81.88,0,45.48-24.42,87.62-103.42,87.62Zm59.85-327V572.42H586c23.47,0,36.87-4.31,49.8-10.54,16.28-14.84,27.29-31.6,27.29-64.16,0-44.05-30.64-79-86.18-79Zm0,162.32V736.17c16.76,2.4,43.09,2.4,68.95,2.4,42.61,0,67.51-10.06,86.19-27.77,8.62-14.37,12.93-25.86,12.45-52.67-.48-46.45-35-77.1-84.28-77.1Z"/><circle class="cls-2" cx="500" cy="494.66" r="355.56"/><rect class="cls-3" x="398.23" y="242.4" width="99.49" height="417"/><circle class="cls-2" cx="500" cy="500" r="400"/></svg>