<svg id="Layer_1" data-name="Layer 1" xmlns="http://www.w3.org/2000/svg" viewBox="0 0 1000 1000"><defs><style>.cls-1{fill:#3fbbd8;stroke-width:6px;}.cls-1,.cls-2,.cls-3{stroke:#3fbbd8;stroke-miterlimit:10;}.cls-2,.cls-3{fill:none;}.cls-2{stroke-width:16px;}.cls-3{stroke-width:15px;}</style></defs><path class="cls-1" d="M426.2,736.32l.52-5.14,53.48-2.58V384l-50.4-2.57.52-5.14H572.26c63.26,0,100.8,39.6,100.8,93.08,0,38.58-15.43,73-58.63,84.86,41.14,11.32,66.34,44.74,66.34,87.94,0,48.86-26.23,94.12-111.08,94.12Zm64.29-351.26V550.15H580c25.2,0,39.6-4.63,53.49-11.32,17.48-15.94,29.31-33.94,29.31-68.91,0-47.32-32.91-84.86-92.57-84.86Zm0,174.34V726c18,2.57,46.28,2.57,74,2.57,45.78,0,72.52-10.8,92.58-29.83C666.37,683.35,671,671,670.49,642.2c-.52-49.88-37.55-82.8-90.52-82.8Z"/><circle class="cls-2" cx="500" cy="500" r="393.75"/><rect class="cls-2" x="347.46" y="263.68" width="136.47" height="405"/><circle class="cls-3" cx="500" cy="500" r="450"/></svg>