<svg id="Layer_1" data-name="Layer 1" xmlns="http://www.w3.org/2000/svg" viewBox="0 0 1000 1000"><defs><style>.cls-1{fill:#3fbbd8;stroke-width:6px;}.cls-1,.cls-2,.cls-3{stroke:#3fbbd8;stroke-miterlimit:10;}.cls-2,.cls-3{fill:none;}.cls-2{stroke-width:16px;}.cls-3{stroke-width:15px;}</style></defs><path class="cls-1" d="M434.4,710.06l.46-4.57,47.54-2.29V396.92l-44.8-2.29.46-4.57H564.23c56.23,0,89.6,35.2,89.6,82.74,0,34.29-13.71,64.92-52.11,75.43,36.57,10.06,59,39.77,59,78.17,0,43.43-23.32,83.66-98.75,83.66Zm57.14-312.23V544.57h79.55c22.4,0,35.2-4.11,47.54-10.05,15.54-14.17,26.06-30.17,26.06-61.26,0-42.06-29.26-75.43-82.29-75.43Zm0,155V700.92c16,2.28,41.15,2.28,65.83,2.28,40.69,0,64.46-9.6,82.29-26.51C647.89,663,652,652,651.54,626.4c-.45-44.34-33.37-73.6-80.45-73.6Z"/><circle class="cls-2" cx="500" cy="500" r="350"/><rect class="cls-2" x="364.41" y="289.94" width="121.31" height="360"/><circle class="cls-3" cx="500" cy="500" r="400"/></svg>