<svg id="Layer_1" data-name="Layer 1" xmlns="http://www.w3.org/2000/svg" xmlns:xlink="http://www.w3.org/1999/xlink" viewBox="0 0 1000 1000"><defs><style>.cls-1{fill:none;}.cls-2{fill:#14ad59;}.cls-3{fill:#31dd81;}.cls-4{isolation:isolate;}.cls-5{clip-path:url(#clip-path);}.cls-6{fill:#fff;}</style><clipPath id="clip-path"><polygon class="cls-1" points="520.22 753.67 521.74 656.45 754.77 550.8 753.25 648.03 520.22 753.67"/></clipPath></defs><path class="cls-2" d="M887.09,633.08C842.26,656.45,610,751.93,560.6,777.71s-76.9,25.52-116,6.85S158.46,666.07,114,644.79C91.7,634.16,80,625.19,80,616.71V381.8s321.73-70,373.67-88.67,69.95-19.31,114.15-3.12S876.32,353.88,920,369.88l0,233.71c0,8.39-10.07,17.6-32.89,29.49"/><path class="cls-3" d="M887.07,390.28C842.25,413.64,610,509.12,560.59,534.9s-76.89,25.52-116,6.85S158.47,423.25,114,402s-45.45-35.92-1.72-53.05S401.73,235.39,453.67,216.76s69.95-19.3,114.15-3.11,275,108.06,318.71,124.06,45.37,29.21.54,52.57"/><g class="cls-4"><g class="cls-5"><path class="cls-6" d="M554.17,723.86q-9.54,4.33-15.94-2.65T532.06,700a60.15,60.15,0,0,1,6.93-27.1q6.71-12.91,16.24-17.25t15.93,2.66q6.39,7,6.17,21.17a59.94,59.94,0,0,1-6.93,27.11q-6.71,12.93-16.23,17.24m1.29-82.7q-14.3,6.48-24.23,24.8A83.59,83.59,0,0,0,521,705.06q-.33,20.79,9.16,30.3t23.8,3q14.29-6.48,24.23-24.8a83.59,83.59,0,0,0,10.25-39.11q.33-20.76-9.17-30.29t-23.79-3"/><path class="cls-6" d="M617.38,667l.59-37.65,11-5q8.79-4,12.85-1.83c2.71,1.44,4,5.42,3.91,11.91s-1.26,11.93-3.48,16.27-6.33,7.87-12.31,10.59L617.38,667m12-57.12-22,10-1.47,94,10.81-4.9.44-27.56,11.36-5.16q14.12-6.39,21.06-17.42t7.22-28.11q.27-17.09-6.29-22.25t-21.13,1.42"/><path class="cls-6" d="M684.22,663.84l.4-25.69,15.58-7.06q13.65-6.2,13.46,6.32-.12,7.67-3.32,11.85a23.29,23.29,0,0,1-9.17,6.89l-16.95,7.69m.63-40.34.38-24.34,13.84-6.28q6-2.7,8.75-1c1.86,1.11,2.76,3.92,2.69,8.4q-.18,11.7-11.92,17l-13.74,6.23m14.72-45.41-24.93,11.3-1.47,94,28.05-12.71q13.11-5.94,18.64-17.14a45.32,45.32,0,0,0,4.86-19.42q.13-8.86-3.3-13.26c-2.28-2.92-5.41-4.11-9.36-3.57q1.66-1.81,2.31-2.58c.44-.52,1.25-1.66,2.42-3.44q4.86-7.53,5-18.57.13-9.13-4.14-14.41c-1.49-1.9-3.8-2.91-6.92-3s-6.85.83-11.19,2.79"/><polyline class="cls-6" points="754.74 553.09 743.92 557.99 742.45 651.99 753.27 647.09 754.74 553.09"/></g></g></svg>