<svg id="Layer_1" data-name="Layer 1" xmlns="http://www.w3.org/2000/svg" viewBox="0 0 2507.89 2507.89"><defs><style>.cls-1{fill:#912626;}.cls-2{fill:#c6302b;}.cls-3{fill:#fff;}</style></defs><title>ncm</title><path class="cls-1" d="M2405.51,1549.65C2272.12,1619.19,1581.12,1903.29,1434,1980s-228.83,75.93-345,20.38-851.55-352.58-984-415.9c-66.2-31.63-101-58.31-101-83.55V1248.26s957.32-208.4,1111.87-263.84S1324,927,1455.49,975.15s918,190,1047.94,237.66l-.06,249.1c0,25-30,52.36-97.87,87.75"/><path class="cls-2" d="M2405.46,1298.5C2272.08,1368,1581.1,1652.12,1434,1728.83s-228.82,75.93-345,20.38-851.53-352.58-984-415.87-135.23-106.88-5.12-157.85,861.4-337.86,1016-393.3,208.15-57.45,339.67-9.27,818.38,321.55,948.34,369.16,135,86.9,1.62,156.41"/><path class="cls-3" d="M1518,790m-433,266.44-3.43,355.25,170.58-67.88,3.2-267.68,86-35-3.71,268.51,86-34.51,5.45-359.42L1085,1056.43Z"/></svg>