<svg id="Layer_1" data-name="Layer 1" xmlns="http://www.w3.org/2000/svg" xmlns:xlink="http://www.w3.org/1999/xlink" viewBox="0 0 2500 2500"><defs><style>.cls-1{fill:none;}.cls-2{fill:#872929;}.cls-3{fill:#b53333;}.cls-4{isolation:isolate;}.cls-5{clip-path:url(#clip-path);}.cls-6{fill:#fff;}</style><clipPath id="clip-path"><polygon class="cls-1" points="1114.6 1353.49 1122.95 867.42 1385.9 776.88 1377.55 1262.95 1114.6 1353.49"/></clipPath></defs><path class="cls-2" d="M2402.05,1525.74c-133.42,69.59-824.55,353.88-971.69,430.66s-228.88,76-345.12,20.39S233.53,1624,101,1560.61C34.82,1529,0,1502.26,0,1477V1224.16s957.52-208.54,1112.1-264,208.2-57.49,339.75-9.28S2370,1141,2500,1188.67l-.06,249.27c0,25-30,52.4-97.89,87.8"/><path class="cls-3" d="M2402,1284.76c-133.41,69.49-824.52,353.51-971.66,430.21s-228.87,75.91-345.1,20.37-851.7-352.49-984.18-415.76S-34.19,1212.73,96,1161.78,957.52,824,1112.11,768.59s208.19-57.43,339.73-9.26,818.55,321.45,948.54,369.06,135,86.87,1.62,156.37"/><g class="cls-4"><g class="cls-5"><path class="cls-6" d="M1319.9,930c-9.89,3.41-19.1,1.58-25.93-5.12s-10.47-17.51-10.25-30.4a75.58,75.58,0,0,1,11.42-37.86c7.15-11.51,16.53-19.73,26.42-23.13s19.09-1.59,25.92,5.11l4.93,4.85-.49.8c3.94,6.49,6,15,5.81,24.76a75.37,75.37,0,0,1-11.43,37.85c-7.14,11.52-16.52,19.74-26.4,23.14m2.2-112.68c-13.18,4.57-25.68,15.54-35.21,30.87a100.55,100.55,0,0,0-15.27,50.52c-.3,17.19,4.57,31.59,13.71,40.54a30.9,30.9,0,0,0,23,9l5.43-.16-3.36,195.36c-.5,29-9.66,59.3-25.78,85.25s-37.28,44.45-59.58,52.13-43.06,3.6-58.48-11.48S1143,1230,1143.46,1201l1.09-63.18,30.68,34.38a3.84,3.84,0,0,0,4.11,1.15l.32-.1a8.43,8.43,0,0,0,4-3.4,12.29,12.29,0,0,0,2.06-6.1,7.06,7.06,0,0,0-1.44-5.11L1144,1113.4l-.2-.28a3.9,3.9,0,0,0-4.36-1.64,2.9,2.9,0,0,0-.42.12,8.33,8.33,0,0,0-4,3.46,13.74,13.74,0,0,0-2.19,7.09l-1.43,83c-.57,33.33,8.84,61.24,26.49,78.59s41.45,22.06,67,13.27,49.77-30,68.23-59.83c14.09-22.73,28.68-55.61,30-127.13L1325.91,945l5.35-3.67c8.88-6.07,16.63-14.56,23.7-26a100.85,100.85,0,0,0,15.24-50.52c.29-17.19-4.56-31.59-13.68-40.55s-21.3-11.37-34.42-6.89"/><path class="cls-6" d="M1320.22,911.42c-6.08,2.09-11.73,1-15.93-3.14s-6.43-10.76-6.3-18.68a46.44,46.44,0,0,1,7-23.26c4.39-7.08,10.15-12.12,16.23-14.22,5.89-2,11.4-1,15.56,2.8l.36.36c4.2,4.12,6.43,10.75,6.3,18.67a46.44,46.44,0,0,1-7,23.26c-4.39,7.07-10.15,12.12-16.22,14.21m1.34-77.9c-9.89,3.4-19.27,11.62-26.42,23.13a75.58,75.58,0,0,0-11.42,37.86c-.22,12.89,3.42,23.68,10.25,30.4s16,8.53,25.93,5.12,19.26-11.62,26.4-23.14A75.37,75.37,0,0,0,1357.73,869c.17-9.73-1.87-18.27-5.81-24.76l.49-.8-4.93-4.85c-6.83-6.7-16-8.52-25.92-5.11m-96.48,447.37c22.3-7.68,43.46-26.19,59.58-52.13s25.28-56.22,25.78-85.25l3.36-195.36-5.43.16a30.9,30.9,0,0,1-23-9c-9.14-8.95-14-23.35-13.71-40.54a100.55,100.55,0,0,1,15.27-50.52c9.53-15.33,22-26.3,35.21-30.87s25.35-2,34.42,6.89,14,23.36,13.68,40.55A100.85,100.85,0,0,1,1355,915.31c-7.07,11.41-14.82,19.9-23.7,26l-5.35,3.67-2.84,165.13c-1.35,71.52-15.94,104.4-30,127.13-18.46,29.79-42.69,51-68.23,59.83s-49.33,4.08-67-13.27-27.06-45.26-26.49-78.59l1.43-83a13.74,13.74,0,0,1,2.19-7.09,8.33,8.33,0,0,1,4-3.46,2.9,2.9,0,0,1,.42-.12,3.9,3.9,0,0,1,4.36,1.64l.2.28,40.36,45.24a7.06,7.06,0,0,1,1.44,5.11,12.29,12.29,0,0,1-2.06,6.1,8.43,8.43,0,0,1-4,3.4l-.32.1a3.84,3.84,0,0,1-4.11-1.15l-30.68-34.38-1.09,63.18c-.5,29,7.72,53.33,23.14,68.41s36.19,19.16,58.48,11.48m97.48-482.2-.28.09c-16.93,5.93-33,20-45.24,39.74s-19.32,43-19.7,65.14,5.9,40.73,17.68,52.27a39.86,39.86,0,0,0,24.26,11.45l-3.11,181c-.41,24-8,49.13-21.36,70.64s-30.92,36.86-49.41,43.22-35.71,3-48.49-9.51-19.59-32.64-19.18-56.69l.26-15,6.44,7.22c3.55,4,8.47,5.35,13.88,3.85.34-.1.69-.21,1-.33,5-1.73,9.87-5.78,13.71-11.51a41.74,41.74,0,0,0,7-20.58c.39-7.15-1.35-13.28-4.9-17.27l-39.93-44.77a13.1,13.1,0,0,0-14.45-5.16c-.49.12-1,.27-1.46.44-5.09,1.75-10,5.88-13.81,11.79a43.13,43.13,0,0,0-7,22.26l-1.43,83c-.66,38.29,10.15,70.36,30.44,90.3s47.63,25.36,77,15.25,57.2-34.53,78.42-68.77c23-37,33.25-79.4,34.43-141.7l2.6-151.13c9.19-7.37,17.37-16.93,24.88-29,12.3-19.82,19.27-42.94,19.65-65.12s-5.88-40.73-17.62-52.27-27.41-14.64-44.29-8.92"/></g></g></svg>