<svg id="Layer_1" data-name="Layer 1" xmlns="http://www.w3.org/2000/svg" xmlns:xlink="http://www.w3.org/1999/xlink" viewBox="0 0 2500 2500"><defs><style>.cls-1{fill:none;}.cls-2{fill:#872929;}.cls-3{fill:#b53333;}.cls-4{isolation:isolate;}.cls-5{clip-path:url(#clip-path);}.cls-6{fill:#fff;}</style><clipPath id="clip-path"><polygon class="cls-1" points="1041.3 1490.33 1051.95 870.26 1459.19 730.04 1448.54 1350.1 1041.3 1490.33"/></clipPath></defs><path class="cls-2" d="M2402.05,1525.74c-133.42,69.59-824.55,353.88-971.69,430.66s-228.88,76-345.12,20.39S233.53,1624,101,1560.61C34.82,1529,0,1502.26,0,1477V1224.16s957.52-208.54,1112.1-264,208.2-57.49,339.75-9.28S2370,1141,2500,1188.67l-.06,249.27c0,25-30,52.4-97.89,87.8"/><path class="cls-3" d="M2402,1284.76c-133.41,69.49-824.52,353.51-971.66,430.21s-228.87,75.91-345.1,20.37-851.7-352.49-984.18-415.76S-34.19,1212.73,96,1161.78,957.52,824,1112.11,768.59s208.19-57.43,339.73-9.26,818.55,321.45,948.54,369.06,135,86.87,1.62,156.37"/><g class="cls-4"><g class="cls-5"><path class="cls-6" d="M1367.15,761.73l-.46.16.23-.08.23-.08m-.23.08c-25.53,8.87-48.87,30.32-66,57.86s-28.06,61.37-28.63,94.69,9.29,59.92,25.7,76a58,58,0,0,0,43.17,16.93l-2.8,162.47c-.77,44.93-15.46,90.41-38.59,127.64s-54.71,66.2-89.24,78.09-65.47,4.44-87.59-17.2-35.42-57.5-34.64-102.43l1.1-64,30.39,34.08c4.15,4.66,9.94,5.76,15.81,3.74,5.15-1.77,10.36-6,14.56-12.22,9-13.43,10-31.42,2.21-40.16l-65.74-73.68a13.94,13.94,0,0,0-15.58-5.82c-.51.13-1,.28-1.52.45-12,4.14-21.87,20.57-22.14,36.53l-2.34,136c-1,60.63,16.86,109,46.63,138.28s71.41,39.35,117.87,23.35,89-55.06,120.09-105.28c31-50,50.71-111,52.77-220.1l2-113.29c17.81-12.18,32.08-28.83,44.16-48.31,17.11-27.6,28-61.35,28.57-94.67s-9.27-59.93-25.63-76-39.12-21.59-64.57-12.91m-3.61,184.53c-13.5,4.65-25.61,1.73-34.26-6.77S1315.2,917,1315.5,899.4s6-35.45,15.1-50,21.39-25.93,34.91-30.58,25.61-1.73,34.27,6.76h0c8.65,8.5,13.85,22.56,13.54,40.18s-6,35.45-15.09,50-21.4,25.94-34.92,30.59"/></g></g></svg>