<svg id="Layer_1" data-name="Layer 1" xmlns="http://www.w3.org/2000/svg" xmlns:xlink="http://www.w3.org/1999/xlink" viewBox="0 0 2500 2500"><defs><style>.cls-1{fill:none;}.cls-2{fill:#65268e;}.cls-3{fill:#882cc4;}.cls-4{isolation:isolate;}.cls-5{clip-path:url(#clip-path);}.cls-6{fill:#fff;}</style><clipPath id="clip-path"><polygon class="cls-1" points="1093.22 1463.95 1096.43 876.71 1406.85 764.85 1403.63 1352.1 1093.22 1463.95"/></clipPath></defs><path class="cls-2" d="M2401.82,1535.7c-133.39,69.54-824.39,353.64-971.5,430.37s-228.83,75.93-345,20.37-851.55-352.58-984-415.9c-66.2-31.63-101-58.31-101-83.55V1234.32s957.33-208.39,1111.88-263.84S1320.29,913,1451.8,961.2s918,190,1048,237.66l-.06,249.1c0,25-30,52.36-97.87,87.74"/><path class="cls-3" d="M2402,1284.76c-133.41,69.49-824.52,353.51-971.66,430.21s-228.87,75.91-345.1,20.37-851.7-352.49-984.18-415.76S-34.19,1212.73,96,1161.78,957.52,824,1112.11,768.59s208.19-57.43,339.73-9.26,818.55,321.45,948.54,369.06,135,86.87,1.62,156.37"/><g class="cls-4"><g class="cls-5"><polyline class="cls-3" points="1321.37 1057.66 1303.35 1064.15 1285.18 1114.92 1283.52 1115.52 1267.05 1077.23 1251.21 1082.94 1238.24 1108.34 1213.43 1117.28 1213.41 1119.99 1238.99 1110.78 1251.96 1085.37 1265.47 1080.5 1281.95 1118.78 1286.19 1117.25 1304.36 1066.49 1319.71 1060.96 1333.92 1100.06 1339.39 1098.09 1352.07 1068.64 1387.56 1055.85 1387.51 1065.17 1355.81 1076.59 1343.13 1106.03 1329.21 1111.04 1315 1071.94 1308.56 1074.27 1290.39 1125.03 1277.51 1129.67 1261.04 1091.39 1255.27 1093.47 1242.3 1118.87 1213.36 1129.3 1213.35 1132.18 1243.53 1121.3 1256.51 1095.9 1259.95 1094.66 1276.42 1132.94 1291.89 1127.37 1310.06 1076.6 1313.83 1075.24 1328.04 1114.34 1344.5 1108.41 1357.18 1078.96 1387.74 1067.95 1387.82 1053.07 1351.19 1066.26 1338.5 1095.7 1335.57 1096.76 1321.37 1057.66"/><polyline class="cls-6" points="1319.71 1060.96 1304.36 1066.49 1286.19 1117.25 1281.95 1118.78 1265.47 1080.5 1251.96 1085.37 1238.99 1110.78 1213.41 1119.99 1213.36 1129.3 1242.3 1118.87 1255.27 1093.47 1261.04 1091.39 1277.51 1129.67 1290.39 1125.03 1308.56 1074.27 1315 1071.94 1329.21 1111.04 1343.13 1106.03 1355.81 1076.59 1387.51 1065.17 1387.56 1055.85 1352.07 1068.64 1339.39 1098.09 1333.92 1100.06 1319.71 1060.96"/><path class="cls-6" d="M1275.3,879.4l-58.91,20.72,0-4.66,58.91-20.72,0,4.66M1273.6,818c-14.23,5.12-28.39,10.64-41.81,15.88-12,4.68-23.29,9.08-33.4,12.73-5.37,1.93-10.41,3.65-15.05,5.09a33.08,33.08,0,0,1,15.31,6.65c10.26,8.12,15.78,22.88,16,42.66v0l-.13,24.45c11.52-4,21.93-7.61,31.46-11,66-23.8,90.15-38.43,155.58-100.15-10-16.47-32.22-21.05-67.85-14-18.86,3.73-39.55,10.31-60.07,17.71"/><path class="cls-3" d="M1167.6,852V852a46.3,46.3,0,0,1,15.75-.28c4.64-1.44,9.68-3.16,15.05-5.09,10.11-3.65,21.39-8,33.4-12.73,13.42-5.24,27.58-10.76,41.81-15.88,20.52-7.4,41.21-14,60.07-17.71,35.63-7,57.86-2.45,67.85,14-65.43,61.72-89.55,76.35-155.58,100.15-9.53,3.43-19.94,7.06-31.46,11l0,3.72c11.6-4,22.07-7.65,31.67-11.11,66.85-24.09,91-38.88,158-102.22l1.46-1.39-.81-1.5c-10-18.54-33.17-23.95-70.76-16.52-19,3.75-39.79,10.36-60.41,17.79-14.26,5.14-28.44,10.67-41.88,15.91-12,4.67-23.21,9-33.26,12.68-12.35,4.44-22.92,7.75-30.89,9.05"/><polyline class="cls-3" points="1216.44 895.46 1216.39 900.12 1275.3 879.4 1275.35 874.74 1216.44 895.46"/><path class="cls-6" d="M1218.06,1325.65l-5.83,9.94-.09,16.76a96.45,96.45,0,0,1-24.47,64.51,93.64,93.64,0,0,1-13.32,12.29l225.32-98.52,1.29-22.07-36.54-31.91-21.82,5.82-2.14,36.61-36.17,9.67-1.72-28.84L1218,1327.52l0-1.87"/><path class="cls-3" d="M1340,1279.44l-2.14,36.62-30.93,8.25-1.73-29-87.1,28.44,0,1.88,0,1.87,84.56-27.61,1.72,28.84,36.17-9.67,2.14-36.61,21.82-5.82,36.54,31.91-1.29,22.07-225.32,98.52a83.13,83.13,0,0,1-21.7,11.92c-.84.3-1.67.58-2.51.85l.06,1.5,250.86-109.67,1.24-.54,1.59-27.21-38.25-33.41-25.64,6.85"/><path class="cls-6" d="M1151.31,1357.84l.3-55.39,3.54-1.27-.3,55.39-3.54,1.27m4.76-399.11c-8.72,3.15-15.73-3.61-15.66-15.08s7.17-23.31,15.89-26.46,15.73,3.62,15.67,15.09-7.18,23.31-15.9,26.45m.75-100.06A81.4,81.4,0,0,0,1147,863l-.16.07c-26.16,9.56-47.68,45.33-48,79.76l-2.47,451.26c-.31,22.48,7.66,38.18,22.44,44.22,9.78,4,21.79,3.43,33.8-.9a84.25,84.25,0,0,0,33.6-23.22,90.89,90.89,0,0,0,23-60.76l2.46-451.26c-.17-18.7-5.36-32.63-15-40.27-9.92-7.85-24.13-8.9-40-3.19"/><path class="cls-3" d="M1152.67,1437.37c-12,4.33-24,4.9-33.8.9-14.78-6-22.75-21.74-22.44-44.22l2.47-451.26c.28-34.43,21.8-70.2,48-79.76l.16-.07a81.4,81.4,0,0,1,9.8-4.29c15.83-5.71,30-4.66,40,3.19,9.64,7.64,14.83,21.57,15,40.27l-2.46,451.26a90.89,90.89,0,0,1-23,60.76,84.25,84.25,0,0,1-33.6,23.22m4.15-582.43a85.37,85.37,0,0,0-10,4.4c-27.68,10.16-50.42,48-50.72,84.47L1093.6,1395c-.34,23.87,8.13,40.54,23.83,47,9.5,3.89,21,3.64,32.71-.08.84-.27,1.67-.55,2.51-.85a83.13,83.13,0,0,0,21.7-11.92,93.64,93.64,0,0,0,13.32-12.29,96.45,96.45,0,0,0,24.47-64.51l.09-16.76,1.12-203.41v-2.88l.05-9.31,0-2.71,1-188,0-3.72.13-24.45v0c-.18-19.78-5.7-34.54-16-42.66a33.08,33.08,0,0,0-15.31-6.65,46.3,46.3,0,0,0-15.75.28,67,67,0,0,0-10.77,2.92"/><path class="cls-3" d="M1156.3,917.19c-8.72,3.15-15.83,15-15.89,26.46s6.94,18.23,15.66,15.08,15.83-15,15.9-26.45-7-18.23-15.67-15.09"/><polyline class="cls-3" points="1155.15 1301.18 1151.61 1302.45 1151.31 1357.84 1154.85 1356.57 1155.15 1301.18"/></g></g></svg>