<svg id="Layer_1" data-name="Layer 1" xmlns="http://www.w3.org/2000/svg" xmlns:xlink="http://www.w3.org/1999/xlink" viewBox="0 0 2500 2500"><defs><style>.cls-1{fill:none;}.cls-2{fill:#14ad59;}.cls-3{fill:#31dd81;}.cls-4{isolation:isolate;}.cls-5{clip-path:url(#clip-path);}.cls-6{fill:#fff;}</style><clipPath id="clip-path"><polygon id="SVGID" class="cls-1" points="1241.01 1985.87 1244.63 1754.37 1799.48 1502.84 1795.86 1734.34 1241.01 1985.87"/></clipPath></defs><path class="cls-2" d="M2402.05,1646.08c-133.42,69.55-824.55,353.71-971.69,430.44s-228.88,75.95-345.12,20.39-851.71-352.66-984.2-416C34.82,1649.28,0,1622.6,0,1597.35V898.2S957.52,689.76,1112.1,634.3s208.2-57.47,339.75-9.27S2370,815.11,2500,862.73l-.06,695.58c0,25-30,52.37-97.89,87.77"/><path class="cls-3" d="M2402,923.45c-133.41,69.53-824.52,353.69-971.66,430.42s-228.87,75.94-345.1,20.38-851.7-352.66-984.18-416S-34.19,851.39,96,800.41,957.52,462.48,1112.11,407s208.19-57.46,339.74-9.27S2270.39,719.37,2400.38,767s135,86.91,1.62,156.45"/><g class="cls-4"><g class="cls-5"><path class="cls-6" d="M1321.84,1914.89q-22.69,10.29-37.93-6.33t-14.69-50.41a143.34,143.34,0,0,1,16.49-64.55q16-30.74,38.67-41t37.92,6.33q15.24,16.63,14.71,50.41a143.36,143.36,0,0,1-16.51,64.55q-16,30.78-38.66,41.05m3.08-196.92q-34.05,15.43-57.69,59a199.33,199.33,0,0,0-24.41,93.1q-.78,49.49,21.83,72.14t56.65,7.21q34-15.43,57.68-59a199.14,199.14,0,0,0,24.43-93.1q.77-49.46-21.84-72.13t-56.65-7.22"/><path class="cls-6" d="M1472.35,1779.57l1.41-89.64,26.18-11.87q21-9.49,30.61-4.35t9.31,28.36q-.36,23.23-8.29,38.74t-29.32,25.2l-29.9,13.56m28.57-136-52.37,23.74-3.5,223.82,25.74-11.67,1-65.62,27.06-12.27q33.6-15.22,50.15-41.5t17.18-66.92q.64-40.67-15-53t-50.31,3.4"/><path class="cls-6" d="M1631.49,1772l1-61.17,37.08-16.81q32.54-14.74,32.06,15-.28,18.26-7.91,28.23t-21.82,16.41l-40.37,18.3m1.5-96.06.91-58,32.95-14.94q14.18-6.42,20.83-2.45t6.41,20q-.43,27.87-28.37,40.52L1633,1675.92m35.06-108.1-59.36,26.9-3.5,223.83,66.77-30.27q31.21-14.16,44.4-40.8,11.21-22.86,11.56-46.25.33-21.12-7.85-31.56t-22.28-8.5c2.63-2.89,4.48-4.94,5.5-6.16s3-3.94,5.76-8.18q11.55-17.94,12-44.2.35-21.78-9.86-34.32c-3.53-4.53-9-6.93-16.47-7.16s-16.31,2-26.63,6.67"/><polyline class="cls-6" points="1799.39 1508.27 1773.64 1519.94 1770.14 1743.77 1795.9 1732.09 1799.39 1508.27"/></g></g></svg>