<svg id="Layer_1" data-name="Layer 1" xmlns="http://www.w3.org/2000/svg" xmlns:xlink="http://www.w3.org/1999/xlink" viewBox="0 0 2500 2500"><defs><style>.cls-1{fill:none;}.cls-2{fill:#912626;}.cls-3{fill:#c6302b;}.cls-4{isolation:isolate;}.cls-5{clip-path:url(#clip-path);}.cls-6{fill:#fff;}</style><clipPath id="clip-path"><polygon class="cls-1" points="1124.66 1394.1 1127.23 924.14 1375.37 834.73 1372.8 1304.68 1124.66 1394.1"/></clipPath></defs><path class="cls-2" d="M2401.82,1535.7c-133.39,69.54-824.39,353.64-971.5,430.37s-228.83,75.93-345,20.37-851.55-352.58-984-415.9c-66.2-31.63-101-58.31-101-83.55V1234.32s957.33-208.39,1111.88-263.84S1320.29,913,1451.8,961.2s918,190,1048,237.66l-.06,249.1c0,25-30,52.36-97.87,87.74"/><path class="cls-3" d="M2402,1284.76c-133.41,69.49-824.52,353.51-971.66,430.21s-228.87,75.91-345.1,20.37-851.7-352.49-984.18-415.76S-34.19,1212.73,96,1161.78,957.52,824,1112.11,768.59s208.19-57.43,339.73-9.26,818.55,321.45,948.54,369.06,135,86.87,1.62,156.37"/><g class="cls-4"><g class="cls-5"><polyline class="cls-3" points="1307.05 1069.34 1292.96 1074.42 1278.39 1115.14 1276.7 1115.75 1263.48 1085.04 1251.11 1089.5 1240.7 1109.88 1220.23 1117.25 1220.22 1119.04 1241.17 1111.5 1251.57 1091.13 1262.41 1087.22 1275.62 1117.93 1279.04 1116.7 1293.61 1075.98 1305.92 1071.54 1317.31 1102.91 1321.71 1101.32 1331.88 1077.71 1360.34 1067.45 1360.3 1074.9 1334.87 1084.06 1324.7 1107.68 1313.54 1111.7 1302.15 1080.33 1296.97 1082.19 1282.39 1122.92 1272.08 1126.64 1258.86 1095.92 1254.22 1097.59 1243.82 1117.98 1220.18 1126.49 1220.17 1128.43 1244.67 1119.6 1255.08 1099.22 1258.16 1098.11 1271.38 1128.81 1283.43 1124.47 1298 1083.75 1301.4 1082.53 1312.8 1113.89 1325.65 1109.26 1335.82 1085.64 1360.49 1076.75 1360.55 1065.59 1331.32 1076.12 1321.15 1099.73 1318.44 1100.71 1307.05 1069.34"/><polyline class="cls-6" points="1305.92 1071.54 1293.61 1075.98 1279.04 1116.7 1275.62 1117.93 1262.41 1087.22 1251.57 1091.13 1241.17 1111.5 1220.22 1119.04 1220.18 1126.49 1243.82 1117.98 1254.22 1097.59 1258.86 1095.92 1272.08 1126.64 1282.39 1122.92 1296.97 1082.19 1302.15 1080.33 1313.54 1111.7 1324.7 1107.68 1334.87 1084.06 1360.3 1074.9 1360.34 1067.45 1331.88 1077.71 1321.71 1101.32 1317.31 1102.91 1305.92 1071.54"/><path class="cls-6" d="M1270.3,925.42,1223.05,942l0-2.8,47.26-16.62,0,2.8M1269,876.09c-11.44,4.12-22.81,8.55-33.6,12.76-9.6,3.75-18.62,7.27-26.71,10.18-5.42,2-10.42,3.64-14.9,4.93a26.9,26.9,0,0,1,14.75,5.6c8.14,6.45,12.51,18.16,12.66,33.86l-.11,20.19c9.45-3.26,18-6.23,25.75-9,53.14-19.14,72.47-30.92,125.35-80.84-8-13.7-26-17.57-55-11.84-15.14,3-31.73,8.26-48.19,14.2"/><path class="cls-3" d="M1183.83,904.45v.06a39,39,0,0,1,9.94-.55c4.48-1.29,9.48-3,14.9-4.93,8.09-2.91,17.11-6.43,26.71-10.18,10.79-4.21,22.16-8.64,33.6-12.76,16.46-5.94,33-11.21,48.19-14.2,29-5.73,47-1.86,55,11.84-52.88,49.92-72.21,61.7-125.35,80.84-7.79,2.81-16.3,5.78-25.75,9v1.86c9.48-3.28,18-6.24,25.82-9.06,53.57-19.3,72.91-31.15,126.6-81.89l.73-.69-.4-.76c-14.24-26.33-59.45-15.21-104.39,1-11.54,4.16-23.08,8.65-34.06,12.94-9.63,3.75-18.67,7.28-26.76,10.19-9.89,3.57-18.37,6.22-24.77,7.26"/><polyline class="cls-3" points="1223.07 939.24 1223.05 942.04 1270.3 925.42 1270.33 922.62 1223.07 939.24"/><path class="cls-6" d="M1169.88,1376.87h0m54.49-93-5.1,8.7-.07,12.87a76.51,76.51,0,0,1-19.42,51.19,73.48,73.48,0,0,1-14.8,12.72l185.48-81.1,1.08-18.48L1342,1243.94l-18.08,4.83-1.72,29.37-28.22,7.53-1.38-23.15-68.22,22.27,0-.94h0"/><path class="cls-3" d="M1322.59,1247.25l-1.72,29.37-25.61,6.84-1.38-23.23-69.48,22.69,0,.93,0,.94,68.22-22.27,1.38,23.15,28.22-7.53,1.72-29.37,18.08-4.83,29.57,25.82-1.08,18.48L1185,1369.34a64.2,64.2,0,0,1-13.08,6.54c-.67.25-1.35.48-2,.69v.3h0l0,.92,201.23-88,.62-.27,1.23-21-30.25-26.4-.18-.16-20,5.33"/><path class="cls-6" d="M1171.19,1309.56l.24-44.43,2.13-.77-.25,44.43-2.12.77m3.46-320c-7,2.52-12.62-2.9-12.57-12.1s5.76-18.7,12.75-21.22,12.62,2.89,12.57,12.09-5.76,18.71-12.75,21.23m.6-80.83a66.08,66.08,0,0,0-7.91,3.46l-.08,0c-21.22,7.75-38.67,36.78-38.9,64.7l-2,362c-.26,18.24,6.21,31,18.21,35.89,7.9,3.23,17.61,2.77,27.32-.73a68.14,68.14,0,0,0,27.18-18.78,73.68,73.68,0,0,0,18.69-49.31l2-362c-.14-15.15-4.34-26.46-12.17-32.66-8-6.36-19.54-7.21-32.34-2.59"/><path class="cls-3" d="M1171.91,1374c-9.71,3.5-19.42,4-27.32.73-12-4.9-18.47-17.65-18.21-35.89l2-362c.23-27.92,17.68-56.95,38.9-64.7l.08,0a66.08,66.08,0,0,1,7.91-3.46c12.8-4.62,24.3-3.77,32.34,2.59,7.83,6.2,12,17.51,12.17,32.66l-2,362a73.68,73.68,0,0,1-18.69,49.31,68.14,68.14,0,0,1-27.18,18.78m3.34-467.2a67.24,67.24,0,0,0-8,3.51c-22,8-40,38.12-40.29,67l-2,362c-.26,18.93,6.45,32.16,18.91,37.25,7.55,3.09,16.72,2.89,26-.06.68-.21,1.36-.44,2-.69a64.2,64.2,0,0,0,13.08-6.54,73.48,73.48,0,0,0,14.8-12.72,76.51,76.51,0,0,0,19.42-51.19l.07-12.87.9-164.13v-1.94l0-7.45v-1.79l.83-151.78v-1.86l.11-20.19c-.15-15.7-4.52-27.41-12.66-33.86a26.9,26.9,0,0,0-14.75-5.6,39,39,0,0,0-9.94.55,51.65,51.65,0,0,0-8.58,2.33"/><path class="cls-3" d="M1174.83,956.21c-7,2.52-12.7,12-12.75,21.22s5.58,14.62,12.57,12.1,12.7-12,12.75-21.23-5.58-14.61-12.57-12.09"/><polyline class="cls-3" points="1173.56 1264.36 1171.43 1265.13 1171.19 1309.56 1173.31 1308.79 1173.56 1264.36"/></g></g></svg>